<?xml version="1.0" ?><!DOCTYPE svg  PUBLIC '-//W3C//DTD SVG 1.1//EN'  'http://www.w3.org/Graphics/SVG/1.1/DTD/svg11.dtd'><svg height="512px" style="enable-background:new 0 0 512 512;" version="1.1" viewBox="0 0 512 512" width="512px" xml:space="preserve" xmlns="http://www.w3.org/2000/svg" xmlns:xlink="http://www.w3.org/1999/xlink"><g id="_x32_01_x2C__Auction_x2C__gavel_x2C__hammer_x2C__judgement_x2C__law"><g><path d="M370.195,184.395l-0.15-0.15l-53.113-53.115l-62.363,62.361    c-1.432,1.432-3.755,1.432-5.188,0c-1.432-1.432-1.432-3.758,0-5.189l62.36-62.361l-4.475-4.473l-0.06-0.061l-0.027-0.029    l-0.061-0.06l0,0l-6.65-6.651c-1.105-1.104-2.597-1.67-4.089-1.67c-1.46,0-2.951,0.566-4.085,1.67l-21.948,21.98l-0.031,0.029    l-0.028,0.03l-0.06,0.03l-50.61,50.609l0,0l-0.032,0.061h-0.028l-0.031,0.06l0,0l-0.06,0.06l0,0l-0.028,0.06h-0.032l-0.028,0.03    l0,0l-0.06,0.059l0,0l-0.032,0.061l0,0l-0.06,0.06l0,0l-0.028,0.06h-0.031l-0.028,0.06l0,0l-0.032,0.06h-0.028l-0.032,0.06l0,0    l-0.028,0.06l0,0l-0.06,0.061l0,0l-0.032,0.059l0,0l-0.028,0.061l0,0l-0.06,0.059l0,0l-0.031,0.06l0,0l-0.028,0.06l0,0    l-0.032,0.061h-0.028l-0.032,0.059l0,0l-0.028,0.061l0,0l-0.032,0.059l0,0l-0.028,0.061l0,0l-0.031,0.06l0,0l-0.028,0.089l0,0    l-0.031,0.061l0,0l-0.028,0.059l0,0l-0.032,0.061l0,0l-0.028,0.06l0,0l-0.032,0.06l0,0l-0.028,0.06l0,0l-0.032,0.09l0,0    l-0.028,0.06l0,0l-0.032,0.06l0,0v0.06l0,0l-0.028,0.06l0,0l-0.031,0.09l0,0l-0.028,0.06l0,0v0.06l0,0l-0.032,0.06l0,0v0.09    h-0.028v0.06l0,0l-0.032,0.06l0,0v0.06l0,0l-0.028,0.089l0,0v0.06l0,0l-0.032,0.06l0,0v0.09l0,0v0.06h-0.028v0.06l0,0v0.09l0,0    v0.06h-0.032v0.06l0,0v0.06l0,0v0.089l0,0v0.061h-0.028v0.09l0,0v0.059v0.061v0.059l0,0v0.09v0.119v0.15v0.059l0,0v0.09v0.06v0.06    l0,0v0.09h0.028v0.059l0,0v0.061l0,0v0.089l0,0v0.06h0.032v0.061l0,0v0.089l0,0v0.06h0.028v0.06l0,0v0.06l0,0l0.032,0.09l0,0v0.06    l0,0l0.028,0.06l0,0v0.09l0,0l0.032,0.06l0,0v0.06h0.028v0.06l0,0l0.032,0.089l0,0v0.061l0,0l0.028,0.06l0,0l0.031,0.06l0,0    l0.028,0.09l0,0v0.06l0,0l0.032,0.06l0,0l0.028,0.06l0,0l0.032,0.06l0,0l0.028,0.09l0,0l0.032,0.06l0,0l0.028,0.06l0,0    l0.032,0.059l0,0l0.028,0.061l0,0l0.031,0.059l0,0l0.028,0.061l0,0l0.031,0.09l0,0l0.028,0.059l0,0l0.032,0.061l0,0l0.028,0.059    l0,0l0.032,0.061h0.028l0.032,0.06l0,0l0.028,0.06l0,0l0.031,0.06l0,0l0.06,0.06l0,0l0.028,0.06l0,0l0.032,0.06l0,0l0.06,0.061    l0,0l0.028,0.059l0,0l0.032,0.061h0.028l0.032,0.059l0,0l0.028,0.061h0.031l0.028,0.06l0,0l0.06,0.06l0,0l0.032,0.06l0,0    l0.06,0.03l0,0l0.028,0.059h0.032l0.028,0.061l0,0l0.06,0.06l0,0l0.031,0.06h0.028l0.032,0.029l0,0l60.749,60.781l48.284-48.285    c1.432-1.432,3.758-1.432,5.19,0c1.432,1.432,1.432,3.758,0,5.189l-48.284,48.254l10.409,10.439c1.13,1.103,2.594,1.67,4.085,1.67    c1.492,0,2.983-0.567,4.085-1.67l20.429-20.43l0.061-0.061l31.732-31.731l0.061-0.06l0.059-0.06l20.369-20.34    c1.103-1.134,1.671-2.595,1.671-4.085c0-1.432-0.509-2.863-1.552-3.967l-6.65-6.681l-0.059-0.03L370.195,184.395z M347.469,66.919    l-23.262,23.232l69.965,69.966l0.061,0.061l0.031,0.029l7.097,7.068l23.232-23.232L347.469,66.919z M222.361,208.641    l-13.778,13.748l60.539,60.542l13.75-13.778l-5.012-5.011l-0.088-0.089l-0.06-0.061L222.361,208.641z M358.951,227.459    l-26.543,26.543l124.395,124.363c25.799-25.797-6.173,6.174,26.511-26.513L358.951,227.459z M315.588,398.228h-26.156H122.095    h-0.091h-0.088H95.76c-5.907,0-11.304,2.417-15.182,6.293c-2.084,2.118-3.787,4.624-4.861,7.456l-0.06,0.119l-0.179,0.478    l-0.028,0.119l-0.21,0.656l-0.028,0.089l-0.06,0.149l-0.032,0.09l-0.028,0.179l-0.032,0.06l-0.06,0.179l-0.06,0.269l-0.028,0.06    l-0.031,0.18l-0.06,0.269l-0.028,0.06l-0.032,0.209l-0.028,0.06l-0.032,0.208l-0.028,0.061l-0.032,0.179v0.06l-0.06,0.209v0.06    l-0.028,0.209v0.06l-0.031,0.209l-0.028,0.029l-0.032,0.238v0.029l-0.028,0.239v0.029l-0.032,0.239l-0.028,0.268v0.03    l-0.032,0.238v0.03l-0.028,0.238v0.03v0.238v0.03l-0.032,0.237v0.03v0.269l0,0l-0.028,0.269l0,0v0.269l0,0v0.268v21.503h262.806    v-8.499H172.853c-1.997,0-3.667-1.641-3.667-3.668c0-2.028,1.67-3.669,3.667-3.669h164.209V419.7    c0-5.904-2.418-11.272-6.293-15.18C326.86,400.645,321.494,398.228,315.588,398.228z M201.456,132.084H74.257v23.858h101.846    c2.029,0,3.671,1.67,3.671,3.669c0,2.027-1.642,3.667-3.671,3.667H74.257v237.306l0.028-0.059l0.775-0.836l0.33-0.328    c1.221-1.223,2.565-2.356,3.966-3.34l0,0l0.597-0.389l0,0l0.298-0.179l0,0l0.267-0.179v-0.029l0.298-0.149v-0.029l0.298-0.179l0,0    l0.298-0.149v-0.03l0.33-0.148l0,0l0.298-0.18l0,0l0.298-0.148v-0.03l0.298-0.149l0,0l0.326-0.148l0,0l0.298-0.149l0,0l0.33-0.149    l0.326-0.148l0.298-0.149l0.33-0.149l0.326-0.119l0,0l0.33-0.149l0.326-0.119l0.33-0.119l0.327-0.12l0,0l0.33-0.119l0.358-0.119    l0.327-0.09l0.33-0.119l0.354-0.089l0.33-0.09l0.358-0.089l0.326-0.09l0.358-0.09l0,0l0.358-0.09l0.33-0.059l0.358-0.09    l0.358-0.06l0.358-0.06l0.358-0.061l0.358-0.059l0.358-0.03l0.358-0.06l0.358-0.03l0.358-0.029l0.358-0.03l0.386-0.029l0.358-0.03    h0.358l0.386-0.03h0.358h0.39h22.577v-21.383v-0.119l0,0v-0.09v-0.089v-0.179l0,0v-0.358l0,0l0.028-0.358v-0.029v-0.328v-0.029    l0.032-0.328v-0.06l0.028-0.328v-0.03l0.031-0.328v-0.029l0.028-0.299v-0.06l0.031-0.298v-0.06l0.028-0.298l0.032-0.061    l0.028-0.298v-0.06l0.06-0.299v-0.059l0.06-0.299v-0.06l0.06-0.269v-0.09l0.06-0.268v-0.09l0.06-0.269l0.032-0.089l0.06-0.239    v-0.089l0.06-0.27l0.028-0.089l0.06-0.238l0.031-0.119l0.06-0.239l0.028-0.089l0.06-0.239l0.032-0.119l0.06-0.238l0.028-0.09    l0.06-0.238l0.032-0.119l0.06-0.209l0.06-0.119l0.06-0.209l0.028-0.119l0.179-0.537l0.06-0.148l0.06-0.18l0.06-0.148l0.06-0.18    l0.06-0.148l0.06-0.18l0.06-0.148l0.091-0.18l0.06-0.148l0.06-0.18l0.06-0.148l0.088-0.149l0.06-0.149l0.06-0.179l0.091-0.149    l0.06-0.148l0.088-0.179l0.06-0.149l0.091-0.148l0.06-0.15l0.088-0.178l0.06-0.15l0.091-0.148l0.06-0.149l0.119-0.179l0.06-0.119    l0.088-0.18l0.06-0.119l0.12-0.178l0.06-0.12l0.091-0.208l0.087-0.09l0.091-0.18l0.06-0.119l0.119-0.209l0.06-0.089l0.147-0.179    l0.06-0.119l0.12-0.18l0.06-0.09l0.119-0.208l0.06-0.089l0.151-0.209l0.028-0.09l0.151-0.18l0.207-0.298l0.06-0.06l0.147-0.209    l0.032-0.09l0.147-0.208l0.06-0.06l0.151-0.209l0.06-0.06l0.179-0.208l0.028-0.061l0.179-0.209l0.031-0.059l0.179-0.209    l0.06-0.061l0.179-0.209l0.028-0.059l0.179-0.209l0.031-0.03l0.207-0.238l0.032-0.03l0.207-0.208l0.032-0.03l0.207-0.238v-0.029    l0.21-0.209l0.028-0.03l0.238-0.239l0,0l0,0l0.239-0.238c1.225-1.223,2.538-2.355,3.966-3.34l0,0l0.568-0.388l0,0l0.298-0.179l0,0    l0.298-0.18v-0.029l0.298-0.18l0,0l0.298-0.178l0,0l0.298-0.149v-0.03l0.298-0.148l0,0l0.298-0.18l0,0l0.326-0.148v-0.03    l0.298-0.149l0,0l0.298-0.148l0,0l0.33-0.149l0,0l0.326-0.149l0.298-0.148l0.33-0.15l0.326-0.148l0.33-0.119l0,0l0.326-0.148    l0.33-0.119l0.326-0.12l0.33-0.119l0,0l0.326-0.119l0.327-0.12l0.358-0.089l0.33-0.12l0.326-0.089l0.358-0.089l0.33-0.12    l0.358-0.06l0.358-0.09l0,0l0.326-0.089l0.358-0.06l0.358-0.09l0.358-0.059l0.358-0.061l0.358-0.059l0.358-0.061l0.358-0.029    l0.358-0.061l0.358-0.029l0.358-0.029l0.358-0.03l0.386-0.03l0.358-0.029h0.358l0.389-0.029h0.358h0.358h54.31v-58.098    l-35.162-35.161l0,0l-0.119-0.149l0,0l-0.119-0.119l0,0c-0.418-0.447-0.748-0.955-1.014-1.461l0,0l-0.06-0.149l0,0l-0.091-0.149    l0,0c-0.119-0.268-0.207-0.507-0.267-0.775l0,0l-0.031-0.06v-0.03l-0.028-0.059l0,0l-0.032-0.09l0,0v-0.061l-0.028-0.029v-0.06    l0,0l-0.032-0.089l0,0v-0.06v-0.03l-0.028-0.06l0,0v-0.089l0,0l-0.032-0.061v-0.029v-0.06l0,0l-0.028-0.09l0,0v-0.089l0,0    l-0.031-0.061v-0.029v-0.06l0,0v-0.09l0,0l-0.028-0.06v-0.029v-0.061l0,0v-0.089l0,0v-0.09l0,0v-0.06l0,0v-0.09l0,0l-0.031-0.089    l0,0v-0.06v-0.03v-0.06l0,0v-0.09l0,0v-0.089l0,0l0.031-0.06v-0.09l0,0v-0.089l0,0v-0.09v-0.06v-0.09l0.028-0.089l0,0v-0.06v-0.09    l0.031-0.09v-0.089l0.028-0.06v-0.09l0,0l0.032-0.09v-0.059l0,0l0.028-0.09l0,0v-0.09l0,0l0.032-0.06l0.028-0.089l0,0v-0.09l0,0    l0.032-0.061l0.028-0.089l0.031-0.089l0,0v-0.061l0,0l0.028-0.089l0,0l0.031-0.06v-0.029l0.028-0.061l0,0l0.032-0.09l0,0    l0.028-0.059l0.032-0.09l0.028-0.06v-0.03l0.032-0.06l0,0l0.028-0.06v-0.029l0.06-0.061l0,0l0.031-0.089l0,0l0.028-0.06l0,0    l0.032-0.09l0.06-0.06l0,0l0.028-0.089l0,0l0.032-0.061l0,0l0.06-0.06l0.028-0.089l0,0l0.031-0.061l0,0l0.06-0.089l0.028-0.06l0,0    l0.06-0.061v-0.029l0.032-0.059h0.028l0.032-0.061l0.06-0.09l0.028-0.059l0,0l0.06-0.061l0.06-0.059l0,0l0.06-0.09l0,0    l0.032-0.061l0,0l0.06-0.059l0,0l0.06-0.061l0.06-0.089l0.06-0.06l0.06-0.061l0,0l0.06-0.059l0.06-0.061l0.06-0.059l24.005-24.009    l0,0l0.06-0.06l0.06-0.06l0,0l0.06-0.06h0.032l0.06-0.06l0.06-0.06l0,0l0.06-0.06l0,0l0.06-0.06l0,0l0.06-0.06h0.028l0.06-0.06    l0,0l0.06-0.03l0,0c0.656-0.536,1.432-0.925,2.208-1.134h0.031l0.207-0.089h0.032l0.147-0.03l0,0l0.151-0.029l0,0    c0.267-0.061,0.537-0.09,0.804-0.119l0,0l0.568-0.029l0.386,0.029h0.028h0.032h0.028h0.06h0.031h0.028l0.298,0.029l0,0h0.091    v0.029l0.298,0.03l0.06,0.03h0.028l0.12,0.029h0.06h0.032l0.119,0.03v0.03l0.239,0.059l0,0c1.042,0.299,2.028,0.865,2.864,1.7    l1.551,1.552V132.084z M195.103,219.287L171.87,242.52l35.846,35.848l0.032,0.029l0.028,0.03l0.032,0.03l41.184,41.186l0,0    l16.077-16.045l0.028-0.029l0.031-0.029l0.028-0.03l7.068-7.099l-7.068-7.068l-0.06-0.059l-0.028-0.061L195.103,219.287z     M266.56,348.035c-0.807-0.06-1.432-0.09-2.326-0.119h-0.06H205.21h-0.088h-0.091h-57.886c-5.907,0-11.272,2.416-15.151,6.293    c-2.116,2.117-3.787,4.623-4.892,7.426l-0.028,0.148l-0.179,0.479l-0.06,0.119l-0.21,0.655l-0.028,0.09l-0.032,0.149l-0.028,0.089    l-0.06,0.179l-0.032,0.061l-0.028,0.179l-0.06,0.269l-0.031,0.06l-0.06,0.179l-0.06,0.268v0.061l-0.06,0.209v0.059l-0.06,0.209    v0.061l-0.028,0.179l-0.031,0.06l-0.028,0.209v0.06l-0.031,0.089h79.69c2.029,0,3.667,1.641,3.667,3.639    c0,2.028-1.639,3.668-3.667,3.668h-79.988v17.834h160.004v-21.502c0-5.904-2.418-11.273-6.292-15.18    c-3.313-3.281-7.637-5.488-12.438-6.114h-0.028h-0.031l-0.028-0.03h-0.06h-0.032h-0.06h-0.06l0,0h-0.028L266.56,348.035z     M208.79,289.82v50.76h55.204v-25.56l-10.202,10.2l-0.06,0.059l-0.06,0.061l-0.06,0.059l0,0l-0.06,0.061l-0.087,0.06l-0.06,0.06    l-0.06,0.06l0,0l-0.06,0.03l0,0l-0.06,0.059l0,0l-0.091,0.061l0,0l-0.06,0.06l0,0l-0.06,0.03v0.029l-0.088,0.029l-0.06,0.061    l-0.06,0.029v0.029l-0.088,0.03l0,0l-0.06,0.03v0.029l-0.06,0.03l-0.091,0.03v0.029l-0.06,0.029l0,0l-0.088,0.03l-0.06,0.06l0,0    l-0.06,0.029l0,0l-0.091,0.03l-0.06,0.06l0,0l-0.087,0.03l0,0l-0.06,0.03h-0.032l-0.06,0.029l-0.06,0.029l-0.028,0.03l-0.06,0.03    l0,0l-0.091,0.029l0,0l-0.06,0.029l0,0l-0.088,0.03l0,0l-0.06,0.03l0,0l-0.091,0.029l-0.088,0.029l0,0h-0.06v0.03h-0.091v0.03    h-0.06l0,0l-0.088,0.029l0,0l-0.091,0.029l-0.06,0.03l0,0h-0.087l0,0l-0.091,0.03l0,0h-0.06v0.029h-0.088l0,0l-0.091,0.03l0,0    h-0.06l0,0l-0.088,0.03l0,0h-0.091l0,0l-0.087,0.029l0,0h-0.151v0.029h-0.087l0,0h-0.239v0.03h-0.091l0,0l-0.477,0.03l-0.147-0.03    h-0.091l0,0h-0.088l0,0h-0.06l0,0h-0.091l0,0h-0.087l-0.091-0.03l0,0h-0.147l0,0h-0.091v-0.029h-0.147l0,0l-0.33-0.06l0,0    l-0.147-0.03l0,0l-0.151-0.06h-0.028l-0.21-0.06l0,0c-1.042-0.298-2.057-0.865-2.892-1.699L208.79,289.82z M263.994,26.002H208.79    v9.633h39.517c2.028,0,3.667,1.67,3.667,3.668c0,2.027-1.639,3.668-3.667,3.668H208.79v85.355v0.119v83.386l8.381-8.38    l-2.745-2.744l-0.445-0.477l0,0l-0.211-0.27l0,0l-0.119-0.119l0,0l-0.119-0.119l0,0l-0.207-0.268l0,0l-0.091-0.12l0,0    l-0.088-0.149l0,0l-0.091-0.119l0,0l-0.119-0.119v-0.029l-0.088-0.119l0,0l-0.091-0.149l-0.088-0.119l0,0l-0.091-0.149l0,0    l-0.06-0.119l-0.028-0.029l-0.06-0.12l0,0l-0.091-0.149l0,0l-0.088-0.119v-0.029l-0.06-0.119l-0.091-0.149l0,0l-0.06-0.149l0,0    l-0.088-0.148l0,0l-0.06-0.119v-0.03l-0.06-0.119h-0.032l-0.028-0.149h-0.032l-0.06-0.148l0,0l-0.06-0.15l0,0l-0.06-0.148l0,0    l-0.06-0.149l0,0l-0.06-0.149l0,0l-0.06-0.148l0,0l-0.028-0.149l0,0l-0.06-0.149l0,0l-0.06-0.148l0,0l-0.032-0.148h-0.028    l-0.032-0.15l-0.028-0.148l-0.032-0.029l-0.028-0.15l0,0l-0.031-0.148l0,0l-0.06-0.149l0,0l-0.028-0.149l0,0l-0.032-0.148l0,0    l-0.028-0.149l0,0l-0.032-0.179l0,0l-0.028-0.149l0,0l-0.032-0.149l0,0l-0.028-0.148l0,0v-0.149h-0.032v-0.179l0,0l-0.028-0.149    l0,0v-0.149l0,0l-0.031-0.148l0,0v-0.18h-0.028v-0.148l0,0v-0.149l0,0l-0.032-0.179l0,0v-0.148l0,0v-0.15l0,0v-0.148v-0.18v-0.148    v-0.149l0,0v-0.149l0,0v-0.179l0,0l0.032-0.149l0,0v-0.148l0,0v-0.149h0.028v-0.179l0,0l0.031-0.148l0,0v-0.15l0,0l0.028-0.148    l0,0v-0.18h0.032v-0.148l0,0l0.028-0.149l0,0l0.032-0.149l0,0l0.028-0.179l0,0l0.032-0.149l0,0l0.028-0.148l0,0l0.032-0.149l0,0    l0.028-0.149l0,0l0.06-0.148l0,0l0.031-0.18l0,0l0.028-0.148h0.032l0.028-0.149l0,0l0.032-0.149h0.028l0.032-0.148l0,0l0.06-0.149    l0,0l0.028-0.149h0.031l0.028-0.148l0,0l0.06-0.15l0,0l0.06-0.148l0,0l0.06-0.148l0,0l0.06-0.149l0,0l0.06-0.149l0,0l0.06-0.148    h0.032l0.028-0.149h0.032l0.06-0.149l0,0l0.06-0.119l0,0l0.088-0.149l0,0l0.06-0.149l0,0l0.091-0.148l0,0l0.06-0.149l0,0    l0.088-0.12l0,0l0.091-0.148l0,0l0.06-0.148h0.028l0.06-0.119l0,0l0.091-0.149l0,0l0.088-0.149l0,0l0.091-0.119l0,0l0.088-0.149    l0,0l0.091-0.119h0.028l0.091-0.149l0,0l0.088-0.119l0,0l0.091-0.119l0,0l0.119-0.149l0,0l0.088-0.119l0,0l0.119-0.119l0,0    l0.091-0.149h0.028l0.091-0.119l0,0l0.12-0.119l0,0l0.119-0.119l0,0l0.088-0.119h0.031l0.088-0.119h0.032l0.087-0.119l0,0    l49.568-49.566V26.002z M43.689,468.492c-2.029,0-3.671-1.64-3.671-3.668s1.642-3.668,3.671-3.668h287.646    c1.997,0,3.667,1.64,3.667,3.668s-1.67,3.668-3.667,3.668H43.689z M212.131,485.999c-2.029,0-3.667-1.671-3.667-3.669    c0-2.027,1.639-3.668,3.667-3.668h199.042c1.997,0,3.667,1.641,3.667,3.668c0,1.998-1.67,3.669-3.667,3.669H212.131z     M431.542,485.999c-2.028,0-3.668-1.671-3.668-3.669c0-2.027,1.64-3.668,3.668-3.668h24.872c2.028,0,3.67,1.641,3.67,3.668    c0,1.998-1.642,3.669-3.67,3.669H431.542z M32.354,485.462c-2.028,0-3.667-1.641-3.667-3.669c0-2.027,1.639-3.668,3.667-3.668    h94.304c2.029,0,3.667,1.641,3.667,3.668c0,2.028-1.639,3.669-3.667,3.669H32.354z M136.2,105.66c2.028,0,3.667,1.641,3.667,3.668    c0,1.998-1.639,3.668-3.667,3.668H56.183v135.22c0,2.028-1.639,3.669-3.667,3.669c-1.997,0-3.639-1.641-3.639-3.669V109.328    c0-2.027,1.642-3.668,3.639-3.668H136.2z M403.21,92.508c-1.433-1.432-1.433-3.758,0-5.189c1.432-1.432,3.758-1.432,5.19,0    l53.024,53.025c1.433,1.432,1.433,3.758,0,5.189l-41.545,41.574c-1.433,1.432-3.755,1.432-5.188,0    c-1.432-1.432-1.432-3.758,0-5.189l38.98-38.979L403.21,92.508z M327.338,103.632L313.56,117.41l5.874,5.875l0.092,0.061    l0.06,0.059l54.517,54.518l13.75-13.748L327.338,103.632z" style="fill-rule:evenodd;clip-rule:evenodd;"/></g></g><g id="Layer_1"/></svg>